<svg id="Lager_1" data-name="Lager 1" xmlns="http://www.w3.org/2000/svg" viewBox="0 0 261.84 261.84"><defs><style>.cls-1{fill:#1a4eb7;}.cls-2{fill:#2573e5;}</style></defs><title>logo</title><path class="cls-1" d="M178.37,67.5a2.35,2.35,0,0,0-1.75,4.31l24.34,14v0l3,1.73,1,.6h0l35.53,20.73a2.35,2.35,0,0,0,3.53-2V73a2.34,2.34,0,0,0-2.91-2.29,86.78,86.78,0,0,1-21.49,2.38C211,73.05,196.8,72.08,178.37,67.5Z"/><path class="cls-1" d="M52.27,121.7a2.35,2.35,0,0,0,4.61-.64V47.14a2.36,2.36,0,0,0-3.53-2L24.17,62a2.35,2.35,0,0,0-.47,3.69C34,76.11,44.77,95.45,52.27,121.7Z"/><path class="cls-1" d="M99.19,58.42A2.35,2.35,0,0,0,102,62.1l24.88-14.37h0l3-1.7,1-.6h0l35.81-20.34a2.35,2.35,0,0,0,0-4.08L137.31,4a2.36,2.36,0,0,0-3.45,1.39C130,19.46,118.52,38.54,99.19,58.42Z"/><path class="cls-1" d="M209.56,140.4a2.34,2.34,0,0,0-4.6.64V214.7a2.34,2.34,0,0,0,3.52,2l29.18-16.84a2.37,2.37,0,0,0,.48-3.71C227.81,185.68,217,166.43,209.56,140.4Z"/><path class="cls-1" d="M162.27,203.63a2.34,2.34,0,0,0-2.85-3.67l-27.48,15.87h0l0,0-1,.57h0l-35.53,20.5a2.35,2.35,0,0,0,0,4.07l29.22,16.87a2.35,2.35,0,0,0,3.43-1.44C131.91,242.26,143.28,223.26,162.27,203.63Z"/><path class="cls-1" d="M83.69,194.47a2.35,2.35,0,0,0,1.75-4.31L61.56,176.37h0l-6.68-3.86L29.83,158.05l-8.49-4.9a2.35,2.35,0,0,0-3.52,2v33.66a2.33,2.33,0,0,0,2.91,2.28,86.28,86.28,0,0,1,21.18-2.32C50.63,188.81,65,189.79,83.69,194.47Z"/><path class="cls-2" d="M244,190.68V119.11a6.08,6.08,0,0,0-3-5.26L208.92,95.26a2.35,2.35,0,0,0-3.51,2.29c5.06,47.92,21.23,80.33,34.53,94.73A2.35,2.35,0,0,0,244,190.68Z"/><path class="cls-2" d="M135.71,258.75l62.21-35.92a6.07,6.07,0,0,0,3-5.27v-37a2.36,2.36,0,0,0-3.75-1.89c-38.92,28.44-59.1,58.63-64.93,77.35A2.35,2.35,0,0,0,135.71,258.75Z"/><path class="cls-2" d="M53.51,144.46q-.85-4.62-1.85-9c-.65-2.93-1.35-5.77-2.08-8.53s-1.5-5.43-2.3-8-1.63-5.11-2.48-7.54c-.43-1.21-.86-2.4-1.3-3.58q-1.32-3.51-2.69-6.78c-.46-1.09-.93-2.16-1.4-3.2q-1.39-3.14-2.84-6c-.48-1-1-1.89-1.45-2.81-1-1.83-1.95-3.58-2.93-5.23s-2-3.23-3-4.71a76.5,76.5,0,0,0-7.33-9.48,2.35,2.35,0,0,0-4.08,1.6V143a6.07,6.07,0,0,0,3,5.27l32.05,18.51a2.35,2.35,0,0,0,3.51-2.3q-.57-5.39-1.34-10.52C54.61,150.7,54.08,147.54,53.51,144.46Z"/><path class="cls-2" d="M126.15,3.07,63.92,39a6.1,6.1,0,0,0-3,5.27v37a2.35,2.35,0,0,0,3.75,1.88c38.78-28.63,59.16-58.64,65-77.33A2.35,2.35,0,0,0,126.15,3.07Z"/><path class="cls-2" d="M238.49,62.84l-62-35.72a6.11,6.11,0,0,0-6.08,0l-32.1,18.51a2.35,2.35,0,0,0,.23,4.19c44,19.53,80.21,21.69,99.32,17.35A2.35,2.35,0,0,0,238.49,62.84Z"/><path class="cls-2" d="M23.84,198.38l62,36.28a6.09,6.09,0,0,0,6.08,0l32.15-18.31a2.36,2.36,0,0,0-.2-4.2c-44-19.74-80.21-22.33-99.36-18.13A2.35,2.35,0,0,0,23.84,198.38Z"/></svg>